# xmcd
#
# Track frame offsets: 
#        150
#        16129
#        31117
#        50535
#        66138
#        83347
#        97739
#        112637
#        126953
#        139912
#        154480
#
# Disc length: 2223 seconds
#
# Revision: 5
# Processed by: cddbd v1.5.2PL0 Copyright (c) Steve Scherf et al.
# Submitted via: ExactAudioCopy v1.0b1
#
DISCID=7c08ad0b
DTITLE=Chris LeDoux - Rodeo Rock And Roll Collection
DYEAR=1995
DGENRE=Country
TTITLE0=Hooked On An 8 Second Ride
TTITLE1=Cadillac Cowboy
TTITLE2=Little Long-Haired Outlaw
TTITLE3=For Your Love
TTITLE4=Billy The Kid
TTITLE5=Even Cowboys Like A Little Rock And Roll (Duet With Charlie Da
TTITLE5=niels)
TTITLE6=I've Got To Be A Rodeo Man
TTITLE7=She's Tough
TTITLE8=Cadillac Ranch
TTITLE9=Call Of The Wild
TTITLE10=Copenhagen
EXTD=
EXTT0=
EXTT1=
EXTT2=
EXTT3=
EXTT4=
EXTT5=
EXTT6=
EXTT7=
EXTT8=
EXTT9=
EXTT10=
PLAYORDER=
